<svg xmlns="http://www.w3.org/2000/svg" viewBox="0 0 96 96" role="img" aria-label="small arcade hopper">
  <ellipse cx="48" cy="78" rx="27" ry="8" fill="#071b16" opacity=".32"/>
  <path d="M28 66 20 84M68 66 76 84" fill="none" stroke="#452315" stroke-width="8" stroke-linecap="round"/>
  <path d="M21 84h19M56 84h19" fill="none" stroke="#f0bc4a" stroke-width="7" stroke-linecap="round"/>
  <path d="M48 13c18 0 30 14 30 33 0 20-12 31-30 31S18 66 18 46c0-19 12-33 30-33Z" fill="#c94f3d"/>
  <path d="M48 17c13 0 22 10 22 23 0 15-9 23-22 23s-22-8-22-23c0-13 9-23 22-23Z" fill="#f0876f"/>
  <circle cx="37" cy="41" r="6" fill="#fff7df"/>
  <circle cx="59" cy="41" r="6" fill="#fff7df"/>
  <circle cx="39" cy="43" r="3" fill="#18221d"/>
  <circle cx="57" cy="43" r="3" fill="#18221d"/>
  <path d="M38 58c6 5 14 5 20 0" fill="none" stroke="#542318" stroke-width="4" stroke-linecap="round"/>
</svg>
