<svg xmlns="http://www.w3.org/2000/svg" viewBox="0 0 36 150" role="img" aria-label="Matchstick">
  <defs>
    <linearGradient id="wood" x1="0" x2="1" y1="0" y2="1">
      <stop offset="0" stop-color="#ffe6ad"/>
      <stop offset="0.42" stop-color="#d9a45a"/>
      <stop offset="1" stop-color="#8f5f2d"/>
    </linearGradient>
    <linearGradient id="head" x1="0" x2="1" y1="0" y2="1">
      <stop offset="0" stop-color="#ff9b7f"/>
      <stop offset="0.58" stop-color="#c94f3d"/>
      <stop offset="1" stop-color="#642016"/>
    </linearGradient>
  </defs>
  <rect x="12" y="32" width="12" height="112" rx="5" fill="url(#wood)"/>
  <path d="M18 5c10 9 14 18 12 27-2 8-8 13-12 13S8 40 6 32C4 23 8 14 18 5Z" fill="url(#head)"/>
  <path d="M18 14c5 6 7 11 6 16-1 4-4 7-6 7s-5-3-6-7c-1-5 1-10 6-16Z" fill="#ffd0bd" opacity=".45"/>
</svg>
