<svg xmlns="http://www.w3.org/2000/svg" viewBox="0 0 800 360" role="img" aria-label="Royal Game of Ur lapis board">
  <defs>
    <linearGradient id="wood" x1="0" x2="1" y1="0" y2="1">
      <stop offset="0" stop-color="#b56b32"/>
      <stop offset="0.52" stop-color="#5d2e1c"/>
      <stop offset="1" stop-color="#2b1711"/>
    </linearGradient>
    <linearGradient id="lapis" x1="0" x2="1" y1="0" y2="1">
      <stop offset="0" stop-color="#1b7aa8"/>
      <stop offset="0.48" stop-color="#123f78"/>
      <stop offset="1" stop-color="#0b1c45"/>
    </linearGradient>
    <pattern id="grain" width="44" height="18" patternUnits="userSpaceOnUse">
      <path d="M0 10c13-9 29 9 44-2" fill="none" stroke="#f4c77e" stroke-opacity=".14" stroke-width="3"/>
    </pattern>
  </defs>
  <rect width="800" height="360" rx="26" fill="url(#wood)"/>
  <rect x="18" y="18" width="764" height="324" rx="20" fill="url(#grain)" opacity=".72"/>
  <rect x="40" y="40" width="720" height="280" rx="16" fill="#241813" stroke="#edc273" stroke-width="8"/>
  <g fill="url(#lapis)" stroke="#f0d08b" stroke-width="4">
    <rect x="70" y="64" width="76" height="76" rx="10"/>
    <rect x="156" y="64" width="76" height="76" rx="10"/>
    <rect x="242" y="64" width="76" height="76" rx="10"/>
    <rect x="328" y="64" width="76" height="76" rx="10"/>
    <rect x="414" y="64" width="76" height="76" rx="10"/>
    <rect x="500" y="64" width="76" height="76" rx="10"/>
    <rect x="70" y="142" width="76" height="76" rx="10"/>
    <rect x="156" y="142" width="76" height="76" rx="10"/>
    <rect x="242" y="142" width="76" height="76" rx="10"/>
    <rect x="328" y="142" width="76" height="76" rx="10"/>
    <rect x="414" y="142" width="76" height="76" rx="10"/>
    <rect x="500" y="142" width="76" height="76" rx="10"/>
    <rect x="586" y="142" width="76" height="76" rx="10"/>
    <rect x="672" y="142" width="76" height="76" rx="10"/>
    <rect x="70" y="220" width="76" height="76" rx="10"/>
    <rect x="156" y="220" width="76" height="76" rx="10"/>
    <rect x="242" y="220" width="76" height="76" rx="10"/>
    <rect x="328" y="220" width="76" height="76" rx="10"/>
    <rect x="414" y="220" width="76" height="76" rx="10"/>
    <rect x="500" y="220" width="76" height="76" rx="10"/>
  </g>
  <g fill="none" stroke="#ffe69f" stroke-width="4" opacity=".92">
    <path d="M108 82l9 18 20 3-14 14 3 20-18-9-18 9 3-20-14-14 20-3z"/>
    <path d="M366 160l9 18 20 3-14 14 3 20-18-9-18 9 3-20-14-14 20-3z"/>
    <path d="M538 238l9 18 20 3-14 14 3 20-18-9-18 9 3-20-14-14 20-3z"/>
  </g>
  <g fill="#fff3bf" opacity=".8">
    <circle cx="194" cy="102" r="5"/><circle cx="280" cy="102" r="5"/><circle cx="452" cy="102" r="5"/>
    <circle cx="108" cy="180" r="5"/><circle cx="194" cy="180" r="5"/><circle cx="280" cy="180" r="5"/>
    <circle cx="452" cy="180" r="5"/><circle cx="538" cy="180" r="5"/><circle cx="624" cy="180" r="5"/><circle cx="710" cy="180" r="5"/>
    <circle cx="108" cy="258" r="5"/><circle cx="194" cy="258" r="5"/><circle cx="280" cy="258" r="5"/><circle cx="366" cy="258" r="5"/><circle cx="452" cy="258" r="5"/>
  </g>
</svg>
